# Blender v2.76 (sub 0) OBJ File: 'boiler.blend'
# www.blender.org
mtllib boiler.mtl
o Cube.001_Cube.000
v 0.750001 0.500000 0.030000
v 0.594438 0.500000 0.094436
v 0.530001 0.500000 0.250000
v 0.594438 0.500000 0.405563
v 0.750001 0.500000 0.470000
v 0.905565 0.500000 0.405563
v 0.970001 0.500000 0.250000
v 0.905565 0.500000 0.094436
v 0.750001 1.000000 0.030000
v 0.594438 1.000000 0.094436
v 0.530001 1.000000 0.250000
v 0.594438 1.000000 0.405563
v 0.750001 1.000000 0.470000
v 0.905565 1.000000 0.405563
v 0.970001 1.000000 0.250000
v 0.905565 1.000000 0.094436
v 1.000000 0.000000 0.000000
v 0.073613 0.720192 0.585634
v 0.073613 0.700092 0.634158
v 0.000000 0.000000 0.000000
v 0.073613 0.720192 0.682682
v 0.073613 0.768716 0.702782
v 0.073613 0.817241 0.682682
v 0.000000 0.500000 0.000000
v 0.073613 0.837340 0.634158
v 0.073613 0.817241 0.585634
v 0.999997 0.500000 0.000000
v 0.073613 0.768716 0.565534
v 1.000000 0.000000 1.000000
v 0.000000 0.000000 1.000000
v 0.999997 0.500000 1.000000
v 0.000000 0.500000 1.000000
v 0.000000 0.700000 1.000000
v 0.999997 0.700000 1.000000
v 0.000000 0.500000 1.000000
v 1.000000 0.500000 1.000000
v 0.999997 0.700000 0.500000
v 0.000000 0.700000 0.500000
v 0.000000 0.500000 0.500000
v 1.000000 0.500000 0.500000
v 0.250001 0.500000 0.030000
v 0.094438 0.500000 0.094436
v 0.030001 0.500000 0.250000
v 0.094438 0.500000 0.405563
v 0.250001 0.500000 0.470000
v 0.405565 0.500000 0.405563
v 0.470001 0.500000 0.250000
v 0.405565 0.500000 0.094436
v 0.250001 1.000000 0.030000
v 0.094438 1.000000 0.094436
v 0.030001 1.000000 0.250000
v 0.094438 1.000000 0.405563
v 0.250001 1.000000 0.470000
v 0.405565 1.000000 0.405563
v 0.470001 1.000000 0.250000
v 0.405565 1.000000 0.094436
v 0.938403 0.768716 0.565534
v 0.938403 0.817241 0.585634
v 0.938403 0.837340 0.634158
v 0.938403 0.817241 0.682682
v 0.938403 0.768716 0.702782
v 0.938403 0.720192 0.682682
v 0.938403 0.700092 0.634158
v 0.938403 0.720192 0.585633
v 0.073613 0.720192 0.785634
v 0.073613 0.700092 0.834158
v 0.073613 0.720192 0.882682
v 0.073613 0.768716 0.902782
v 0.073613 0.817241 0.882682
v 0.073613 0.837340 0.834158
v 0.073613 0.817241 0.785634
v 0.073613 0.768716 0.765534
v 0.938403 0.768716 0.765534
v 0.938403 0.817241 0.785634
v 0.938403 0.837340 0.834158
v 0.938403 0.817241 0.882682
v 0.938403 0.768716 0.902782
v 0.938403 0.720192 0.882682
v 0.938403 0.700092 0.834158
v 0.938403 0.720192 0.785633
vt 0.000000 0.000000
vt 1.000000 0.000134
vt 1.000000 1.000000
vt 0.000000 1.000000
vt 0.000673 0.494715
vt 0.000673 0.009603
vt 0.999659 0.009603
vt 0.999659 0.494715
vt 0.012575 0.493089
vt 0.012575 0.005817
vt 0.994183 0.005818
vt 0.994182 0.493089
vt 0.997554 0.500000
vt 0.004865 0.500000
vt 0.004865 -0.000000
vt 0.997554 0.000134
vt 0.921854 0.849358
vt 0.009965 0.849358
vt 0.009965 0.529755
vt 0.921857 0.529755
vt 0.921854 0.977347
vt 0.009965 0.977347
vt 0.009965 0.849506
vt 0.921857 0.849506
vt 0.816951 0.018980
vt 0.816951 0.981912
vt 0.517357 0.981912
vt 0.517357 0.018980
vt 0.851252 0.017074
vt 0.851252 0.983818
vt 0.550471 0.983818
vt 0.550471 0.017074
vt 0.217762 0.018980
vt 0.217762 0.981912
vt 0.249691 0.017074
vt 0.249691 0.983818
vt 0.833993 0.844330
vt 0.494974 0.984756
vt 0.155956 0.844330
vt 0.974419 0.505312
vt 0.015530 0.505312
vt 0.494974 0.025867
vt 0.155956 0.166293
vt 0.833993 0.166293
vt 0.488274 0.719754
vt 0.488274 0.481389
vt 0.968461 0.481389
vt 0.968461 0.719754
vt 0.926472 0.703760
vt 0.491835 0.703760
vt 0.491835 0.484841
vt 0.926472 0.484841
vt 0.662769 0.391713
vt 0.523647 0.334087
vt 0.384525 0.391713
vt 0.326899 0.530836
vt 0.662769 0.669957
vt 0.720395 0.530836
vt 0.384525 0.669957
vt 0.523647 0.727584
vn 0.000000 -1.000000 0.000000
vn 0.000000 1.000000 0.000000
vn -0.000000 -0.000000 -1.000000
vn -1.000000 0.000000 0.000000
vn 1.000000 0.000000 -0.000000
vn 0.000000 0.000000 1.000000
vn 0.923900 0.000000 -0.382700
vn 0.382700 0.000000 0.923900
vn -0.923900 0.000000 0.382700
vn -0.382700 0.000000 -0.923900
vn 0.382700 0.000000 -0.923900
vn 0.923900 0.000000 0.382700
vn -0.382700 0.000000 0.923900
vn -0.923900 0.000000 -0.382700
vn -0.000000 -0.923900 -0.382700
vn 0.000000 -0.382700 0.923900
vn 0.000000 0.923900 0.382700
vn 0.000000 0.382700 -0.923900
vn -0.000000 -0.382700 -0.923900
vn 0.000000 -0.923900 0.382700
vn 0.000000 0.382700 0.923900
vn 0.000000 0.923900 -0.382700
usemtl None
s off
f 40/1/1 36/2/1 35/3/1 39/4/1
f 17/1/1 29/2/1 30/3/1 20/4/1
f 27/1/2 24/2/2 32/3/2 31/4/2
f 27/5/3 17/6/3 20/7/3 24/8/3
f 24/9/4 20/10/4 30/11/4 32/12/4
f 27/13/5 31/14/5 29/15/5 17/16/5
usemtl None_grate.png
f 31/17/6 32/18/6 30/19/6 29/20/6
f 34/21/6 33/22/6 35/23/6 36/24/6
usemtl None_plain.png
f 8/25/7 16/26/7 15/27/7 7/28/7
f 6/29/8 14/30/8 13/31/8 5/32/8
f 4/33/9 12/34/9 11/27/9 3/28/9
f 2/35/10 10/36/10 9/31/10 1/32/10
f 1/32/11 9/31/11 16/30/11 8/29/11
f 7/28/12 15/27/12 14/34/12 6/33/12
f 5/32/13 13/31/13 12/36/13 4/35/13
f 3/28/14 11/27/14 10/26/14 2/25/14
f 16/37/2 9/38/2 10/39/2
f 15/40/2 16/37/2 10/39/2
f 15/40/2 10/39/2 11/41/2
f 11/41/2 13/42/2 15/40/2
f 12/43/2 13/42/2 11/41/2
f 13/42/2 14/44/2 15/40/2
f 38/45/4 39/46/4 35/47/4 33/48/4
f 37/5/3 40/6/3 39/7/3 38/8/3
f 37/1/2 38/2/2 33/3/2 34/4/2
f 48/25/7 56/26/7 55/27/7 47/28/7
f 46/29/8 54/30/8 53/31/8 45/32/8
f 44/33/9 52/34/9 51/27/9 43/28/9
f 42/35/10 50/36/10 49/31/10 41/32/10
f 41/32/11 49/31/11 56/30/11 48/29/11
f 47/28/12 55/27/12 54/34/12 46/33/12
f 45/32/13 53/31/13 52/36/13 44/35/13
f 43/28/14 51/27/14 50/26/14 42/25/14
f 56/37/2 49/38/2 50/39/2
f 55/40/2 56/37/2 50/39/2
f 55/40/2 50/39/2 51/41/2
f 51/41/2 53/42/2 55/40/2
f 52/43/2 53/42/2 51/41/2
f 53/42/2 54/44/2 55/40/2
f 37/49/5 34/50/5 36/51/5 40/52/5
f 18/25/15 64/26/15 63/27/15 19/28/15
f 21/29/16 62/30/16 61/31/16 22/32/16
f 23/33/17 60/34/17 59/27/17 25/28/17
f 26/35/18 58/36/18 57/31/18 28/32/18
f 28/32/19 57/31/19 64/30/19 18/29/19
f 19/28/20 63/27/20 62/34/20 21/33/20
f 22/32/21 61/31/21 60/36/21 23/35/21
f 25/28/22 59/27/22 58/26/22 26/25/22
f 64/37/5 57/38/5 58/39/5
f 63/40/5 64/37/5 58/39/5
f 63/40/5 58/39/5 59/41/5
f 59/41/5 61/42/5 63/40/5
f 60/43/5 61/42/5 59/41/5
f 61/42/5 62/44/5 63/40/5
f 18/53/4 19/54/4 21/55/4
f 21/55/4 22/56/4 18/53/4
f 18/53/4 22/56/4 26/57/4
f 28/58/4 18/53/4 26/57/4
f 26/57/4 22/56/4 23/59/4
f 25/60/4 26/57/4 23/59/4
f 65/25/15 80/26/15 79/27/15 66/28/15
f 67/29/16 78/30/16 77/31/16 68/32/16
f 69/33/17 76/34/17 75/27/17 70/28/17
f 71/35/18 74/36/18 73/31/18 72/32/18
f 72/32/19 73/31/19 80/30/19 65/29/19
f 66/28/20 79/27/20 78/34/20 67/33/20
f 68/32/21 77/31/21 76/36/21 69/35/21
f 70/28/22 75/27/22 74/26/22 71/25/22
f 80/37/5 73/38/5 74/39/5
f 79/40/5 80/37/5 74/39/5
f 79/40/5 74/39/5 75/41/5
f 75/41/5 77/42/5 79/40/5
f 76/43/5 77/42/5 75/41/5
f 77/42/5 78/44/5 79/40/5
f 65/53/4 66/54/4 67/55/4
f 67/55/4 68/56/4 65/53/4
f 65/53/4 68/56/4 71/57/4
f 72/58/4 65/53/4 71/57/4
f 71/57/4 68/56/4 69/59/4
f 70/60/4 71/57/4 69/59/4
