# Blender v2.76 (sub 0) OBJ File: 'crafter.blend'
# www.blender.org
mtllib crafter.mtl
o Cube.001_Cube.000
v 0.000000 0.500000 0.000000
v 0.999997 0.500000 0.000000
v 0.999997 0.500000 1.000000
v 0.000000 0.500000 1.000000
v 0.499999 0.500000 1.000000
v 0.999997 0.500000 0.600000
v 0.000000 0.500000 0.600000
v 0.499999 0.500000 0.000000
v 0.499999 0.500000 0.600000
v 1.000000 0.000000 0.000000
v 0.000000 0.000000 0.000000
v 0.000000 0.500000 0.000000
v 0.999997 0.500000 0.000000
v 1.000000 0.000000 1.000000
v 0.000000 0.000000 1.000000
v 0.999997 0.500000 1.000000
v 0.000000 0.500000 1.000000
vt 0.419520 0.752328
vt 0.419520 0.542960
vt 0.521245 0.542960
vt 0.521245 0.752328
vt 0.419520 0.961696
vt 0.521245 0.961696
vt 0.985160 0.988924
vt 0.497439 0.988924
vt 0.497439 0.306112
vt 0.985160 0.306112
vt 0.009718 0.988924
vt 0.009718 0.306112
vt 0.935956 0.914452
vt 0.004453 0.914452
vt 0.004453 0.395942
vt 0.935958 0.395942
vt 0.000000 0.000000
vt 1.000000 0.000134
vt 1.000000 1.000000
vt 0.000000 1.000000
vt 0.000673 0.494715
vt 0.000673 0.009603
vt 0.999659 0.009603
vt 0.999659 0.494715
vt 0.005195 0.444387
vt 0.005195 0.004360
vt 0.994886 0.004360
vt 0.994886 0.444387
vt 0.995552 0.454004
vt 0.005602 0.454004
vt 0.005602 0.001248
vt 0.995552 0.001383
vn 0.000000 1.000000 0.000000
vn 0.000000 0.000000 1.000000
vn 0.000000 -1.000000 0.000000
vn -0.000000 -0.000000 -1.000000
vn -1.000000 0.000000 0.000000
vn 1.000000 0.000000 -0.000000
usemtl None
s off
f 9/1/1 7/2/1 4/3/1 5/4/1
f 6/5/1 9/1/1 5/4/1 3/6/1
usemtl None_plain.png
f 2/7/1 8/8/1 9/9/1 6/10/1
f 8/8/1 1/11/1 7/12/1 9/9/1
usemtl None_tech.png
f 16/13/2 17/14/2 15/15/2 14/16/2
usemtl None_base.png
f 10/17/3 14/18/3 15/19/3 11/20/3
f 13/21/4 10/22/4 11/23/4 12/24/4
f 12/25/5 11/26/5 15/27/5 17/28/5
f 13/29/6 16/30/6 14/31/6 10/32/6
