# Blender v2.76 (sub 0) OBJ File: 'grid.blend'
# www.blender.org
mtllib grid.mtl
o Cube.001_Cube.000
v 1.000000 0.000000 0.000000
v 1.000000 0.000000 1.000000
v 0.000000 0.000000 1.000000
v 0.000000 0.000000 0.000000
v 1.000000 0.200000 0.000000
v 1.000000 0.200000 1.000000
v 0.000000 0.200000 1.000000
v 0.000000 0.200000 0.000000
v 1.000000 0.000000 0.000000
v 0.000000 0.000000 0.000000
v 0.999997 0.200000 0.000000
v 0.000000 0.200000 0.000000
v 1.000000 0.000000 1.000000
v 0.000000 0.000000 1.000000
v 0.999997 0.200000 1.000000
v 0.000000 0.200000 1.000000
v 0.000003 0.200000 0.000002
v 0.000003 0.000000 0.999999
v 0.000003 0.000000 -0.000001
v 0.000003 0.200000 0.999999
v 1.000003 0.000000 -0.000001
v 1.000003 0.000000 0.999999
v 1.000003 0.200000 0.000002
v 1.000003 0.200000 0.999999
vt 0.000000 0.000000
vt 0.000000 1.000000
vt 1.000000 1.000000
vt 1.000000 0.000000
vt 1.000000 0.375608
vt 0.000000 0.375608
vn 0.000000 1.000000 0.000000
vn 0.000000 -1.000000 0.000000
vn 0.000000 0.000000 -1.000000
vn 0.000000 0.000000 1.000000
vn -1.000000 0.000000 -0.000000
vn 1.000000 0.000000 0.000000
usemtl None
s off
f 5/1/1 8/2/1 7/3/1 6/4/1
usemtl None_base.png
f 1/1/2 2/4/2 3/3/2 4/2/2
f 11/4/3 9/5/3 10/6/3 12/1/3
f 15/4/4 16/1/4 14/6/4 13/5/4
f 17/4/5 19/5/5 18/6/5 20/1/5
f 23/4/6 24/1/6 22/6/6 21/5/6
