# Blender v2.76 (sub 0) OBJ File: 'grid.blend'
# www.blender.org
mtllib grid.mtl
o Cube.001_Cube.000
v 1.000000 0.000000 0.000000
v 0.000000 0.000000 0.000000
v 0.000000 0.200000 0.000000
v 0.999997 0.200000 0.000000
v 1.000000 0.000000 1.000000
v 0.000000 0.000000 1.000000
v 0.999997 0.200000 1.000000
v 0.000000 0.200000 1.000000
vt 0.000000 0.000000
vt 1.000000 0.000000
vt 1.000000 1.000000
vt 0.000000 1.000000
vt 0.933425 0.500000
vt 0.002147 0.500000
vt 0.002147 0.998460
vt 0.933428 0.998460
vn 0.000000 -1.000000 0.000000
vn 0.000000 0.000000 1.000000
vn -0.000000 -0.000000 -1.000000
vn -1.000000 0.000000 0.000000
vn 1.000000 0.000000 -0.000000
vn 0.000000 1.000000 0.000000
usemtl None
s off
f 1/1/1 5/2/1 6/3/1 2/4/1
usemtl None_grate.png
f 7/5/2 8/6/2 6/7/2 5/8/2
f 4/5/3 1/8/3 2/7/3 3/6/3
f 3/5/4 2/8/4 6/7/4 8/6/4
f 4/5/5 7/6/5 5/7/5 1/8/5
usemtl None_grid.png
f 4/1/6 3/4/6 8/3/6 7/2/6
