# Blender v2.77 (sub 0) OBJ File: 'monitor.blend'
# www.blender.org
mtllib monitor.mtl
o Cube.000_Cube.001
v 0.860000 0.140000 0.881624
v 0.000000 0.000000 0.700000
v 0.999997 1.000000 0.700000
v 0.000000 1.000000 0.700000
v 0.999999 0.500000 0.700000
v 0.499999 1.000000 0.700000
v 0.000000 0.500000 0.700000
v 0.500000 0.000000 0.700000
v 0.499999 0.500000 0.700000
v 1.000000 0.000000 0.000000
v 0.000000 0.000000 0.000000
v 0.000000 1.000000 0.000000
v 0.999997 1.000000 0.000000
v 1.000000 0.000000 0.700000
v 0.860000 0.860000 0.881624
v 0.140000 0.860000 0.881624
v 0.140000 0.140000 0.881624
v 0.100000 0.100000 0.900000
v 0.100000 0.900000 0.900000
v 0.100000 0.100000 0.800000
v 0.100000 0.900000 0.800000
v 0.900000 0.100000 0.900000
v 0.900000 0.900000 0.900000
v 0.900000 0.100000 0.800000
v 0.900000 0.900000 0.800000
v 0.200000 0.200000 0.800000
v 0.200000 0.800000 0.800000
v 0.200000 0.200000 0.700000
v 0.200000 0.800000 0.700000
v 0.300000 0.200000 0.800000
v 0.300000 0.800000 0.800000
v 0.300000 0.200000 0.700000
v 0.300000 0.800000 0.700000
v 0.700000 0.200000 0.800000
v 0.700000 0.800000 0.800000
v 0.700000 0.200000 0.700000
v 0.700000 0.800000 0.700000
v 0.800000 0.200000 0.800000
v 0.800000 0.800000 0.800000
v 0.800000 0.200000 0.700000
v 0.800000 0.800000 0.700000
vt 0.0000 0.0000
vt 0.6250 0.0000
vt 0.6250 1.0000
vt 0.0000 1.0000
vt 0.0000 0.0000
vt 1.0000 0.0000
vt 1.0000 0.6250
vt 0.0000 0.6250
vt 1.0000 0.0000
vt 1.0000 1.0000
vt 0.0000 1.0000
vt 0.0000 0.0000
vt 1.0000 0.0000
vt 1.0000 0.6250
vt 0.0000 0.6250
vt 0.6250 0.0000
vt 0.6250 1.0000
vt 0.0000 1.0000
vt 0.5714 0.0000
vt 0.6429 0.0000
vt 0.6429 0.5000
vt 0.5714 0.5000
vt 0.0000 0.5000
vt 0.0000 0.0000
vt 0.5714 0.0000
vt 0.5714 0.5000
vt 0.7857 0.5000
vt 0.7143 0.5000
vt 0.7143 0.0000
vt 0.7857 0.0000
vt 0.0000 1.0000
vt 0.0000 0.5000
vt 0.0286 0.5250
vt 0.0286 0.9750
vt 0.7857 0.0000
vt 0.8571 0.0000
vt 0.8571 0.5000
vt 0.7857 0.5000
vt 0.6429 0.0000
vt 0.7143 0.0000
vt 0.7143 0.5000
vt 0.6429 0.5000
vt 0.5714 1.0000
vt 0.5429 0.9750
vt 0.5429 0.5250
vt 0.9286 0.0000
vt 1.0000 0.0000
vt 1.0000 0.3750
vt 0.9286 0.3750
vt 0.8571 0.3750
vt 0.9286 0.3750
vt 0.9286 0.7500
vt 0.8571 0.7500
vt 0.7143 0.8750
vt 0.6429 0.8750
vt 0.6429 0.5000
vt 0.7143 0.5000
vt 0.8571 0.0000
vt 0.8571 0.3750
vt 0.5714 0.5625
vt 0.5714 0.5000
vt 0.6429 0.5000
vt 0.6429 0.5625
vt 0.6429 0.5625
vt 0.6429 0.6250
vt 0.5714 0.6250
vt 0.5714 0.5625
vt 0.4000 0.0000
vt 0.6000 0.0000
vt 0.6000 1.0000
vt 0.4000 1.0000
vt 0.0000 0.0000
vt 0.2000 0.0000
vt 0.2000 1.0000
vt 0.0000 1.0000
vt 0.8000 1.0000
vt 0.6000 1.0000
vt 0.6000 0.0000
vt 0.8000 0.0000
vt 0.2000 0.0000
vt 0.2000 1.0000
vt 0.8000 0.1667
vt 0.8000 0.0000
vt 1.0000 0.0000
vt 1.0000 0.1667
vt 1.0000 0.1667
vt 1.0000 0.3333
vt 0.8000 0.3333
vt 0.8000 0.1667
vt 0.0000 0.0000
vt 1.0000 0.0000
vt 1.0000 1.0000
vt 0.0000 1.0000
vt 0.4270 0.5000
vt 0.0000 0.5000
vt 0.0000 0.0000
vt 0.4270 0.0000
vt 0.9055 0.4184
vt 0.4055 0.4184
vt 0.4055 0.0000
vt 0.9055 0.0000
vt 0.9098 0.4116
vt 0.4098 0.4116
vt 0.4098 0.0061
vt 0.9098 0.0061
vt 0.4270 1.0000
vt 0.0000 1.0000
vn 0.0000 -1.0000 0.0000
vn 0.0000 1.0000 0.0000
vn -0.0000 -0.0000 -1.0000
vn -1.0000 0.0000 0.0000
vn 1.0000 0.0000 -0.0000
vn 0.0000 -0.4174 0.9087
vn -0.4175 0.0000 0.9087
vn 0.4175 0.0000 0.9087
vn 0.0000 0.4175 0.9087
vn 0.0000 0.0000 1.0000
usemtl None
s off
f 10/1/1 14/2/1 2/3/1 11/4/1
f 13/5/2 12/6/2 4/7/2 3/8/2
f 13/5/3 10/9/3 11/10/3 12/11/3
f 12/12/4 11/13/4 2/14/4 4/15/4
f 13/5/5 3/16/5 14/17/5 10/18/5
usemtl None_plain.png
f 19/19/4 21/20/4 20/21/4 18/22/4
f 21/23/3 25/24/3 24/25/3 20/26/3
f 25/27/5 23/28/5 22/29/5 24/30/5
f 23/31/6 19/32/6 16/33/6 15/34/6
f 18/35/1 20/36/1 24/37/1 22/38/1
f 23/39/2 25/40/2 21/41/2 19/42/2
f 22/43/7 23/31/7 15/34/7 1/44/7
f 19/32/8 18/22/8 17/45/8 16/33/8
f 18/22/9 22/43/9 1/44/9 17/45/9
f 27/46/4 29/47/4 28/48/4 26/49/4
f 29/50/3 33/51/3 32/52/3 28/53/3
f 33/54/5 31/55/5 30/56/5 32/57/5
f 31/58/10 27/46/10 26/49/10 30/59/10
f 26/60/1 28/61/1 32/62/1 30/63/1
f 31/64/2 33/65/2 29/66/2 27/67/2
f 35/68/4 37/69/4 36/70/4 34/71/4
f 37/72/3 41/73/3 40/74/3 36/75/3
f 41/76/5 39/77/5 38/78/5 40/79/5
f 39/80/10 35/68/10 34/71/10 38/81/10
f 34/82/1 36/83/1 40/84/1 38/85/1
f 39/86/2 41/87/2 37/88/2 35/89/2
usemtl None_screen.png
f 15/90/10 16/91/10 17/92/10 1/93/10
usemtl None_tech.png
f 9/94/10 7/95/10 2/96/10 8/97/10
f 5/98/10 9/99/10 8/100/10 14/101/10
f 3/102/10 6/103/10 9/104/10 5/105/10
f 6/106/10 4/107/10 7/95/10 9/94/10
