# Blender v2.79 (sub 0) OBJ File: 'pipeblock.blend'
# www.blender.org
mtllib pipeblock.mtl
o Cube.001_Cube.000
v 0.250000 -0.250000 -0.250000
v 0.250000 -0.250000 0.250000
v -0.250000 -0.250000 0.250000
v -0.250000 -0.250000 -0.250000
v 0.250000 0.250000 -0.250000
v 0.250000 0.250000 0.250000
v -0.250000 0.250000 0.250000
v -0.250000 0.250000 -0.250000
v 0.250000 -0.250000 -0.250000
v -0.250000 -0.250000 -0.250000
v 0.249997 0.250000 -0.250000
v -0.250000 0.250000 -0.250000
v 0.250000 -0.250000 0.250000
v -0.250000 -0.250000 0.250000
v 0.249997 0.250000 0.250000
v -0.250000 0.250000 0.250000
v -0.249997 0.250000 -0.249998
v -0.249997 -0.250000 0.249999
v -0.249997 -0.250000 -0.250001
v -0.249997 0.250000 0.249999
v 0.250003 -0.250000 -0.250001
v 0.250003 -0.250000 0.249999
v 0.250003 0.250000 -0.249998
v 0.250003 0.250000 0.249999
vt 0.000000 0.000000
vt 1.000000 0.000000
vt 1.000000 1.000000
vt 0.000000 1.000000
vt 0.000000 0.000000
vt 1.000000 0.000000
vt 1.000000 1.000000
vt 0.000000 1.000000
vt 0.546543 0.002159
vt 0.993230 0.002159
vt 0.993230 0.502159
vt 0.546543 0.502159
vt 0.000000 0.500000
vt 0.557619 0.500000
vt 0.557619 1.000000
vt 0.000000 1.000000
vt 0.551001 0.493089
vt 0.551001 0.005817
vt 0.994183 0.005818
vt 0.994182 0.493089
vt 0.564936 0.000000
vt 0.997554 0.000000
vt 0.997554 0.500000
vt 0.564936 0.500000
vn 0.0000 -1.0000 0.0000
vn 0.0000 1.0000 0.0000
vn 0.0000 0.0000 -1.0000
vn 0.0000 0.0000 1.0000
vn -1.0000 0.0000 -0.0000
vn 1.0000 0.0000 0.0000
usemtl None
s off
f 1/1/1 2/2/1 3/3/1 4/4/1
f 5/5/2 8/6/2 7/7/2 6/8/2
usemtl None_grate.png
f 11/9/3 9/10/3 10/11/3 12/12/3
f 15/13/4 16/14/4 14/15/4 13/16/4
f 17/17/5 19/18/5 18/19/5 20/20/5
f 23/21/6 24/22/6 22/23/6 21/24/6
