# Blender v2.79 (sub 0) OBJ File: 'power_optimizer.blend'
# www.blender.org
mtllib power_optimizer.mtl
o Cube.002
v 0.199999 0.200000 0.200000
v 0.000001 0.200000 0.200000
v 0.199999 0.800000 0.200000
v -0.000001 0.800000 0.200000
v 0.199999 0.200000 0.000000
v 0.199999 0.800000 0.000000
v -0.000001 0.800000 0.000000
v 0.799999 0.800000 0.800000
v 0.999999 0.800000 0.800000
v 0.999999 0.200000 0.800000
v 0.800001 0.200000 0.800000
v 0.799999 0.800000 1.000000
v 0.999999 0.800000 1.000000
v 0.800001 0.200000 1.000000
v 0.199999 0.200000 1.000000
v 0.199999 0.800000 1.000000
v -0.000001 0.800000 1.000000
v 0.000001 0.200000 0.800000
v 0.199999 0.200000 0.800000
v 0.199999 0.800000 0.800000
v -0.000001 0.800000 0.800000
v 1.000000 0.000000 0.000000
v 0.000000 0.000000 0.000000
v 0.000000 0.200000 0.000000
v 0.999997 0.200000 0.000000
v 1.000000 0.000000 1.000000
v 0.000000 0.000000 1.000000
v 0.999997 0.200000 1.000000
v 0.000000 0.200000 1.000000
v -0.000001 1.000000 0.000000
v 0.999999 1.000000 0.000000
v 0.999999 0.800000 0.000000
v -0.000001 1.000000 1.000000
v 0.999999 1.000000 1.000000
v 0.799999 0.800000 0.000000
v 0.800001 0.200000 0.000000
v 0.799999 0.800000 0.200000
v 0.999999 0.800000 0.200000
v 0.800001 0.200000 0.200000
v 0.999999 0.200000 0.200000
vt 0.237774 0.275260
vt 0.237774 0.711264
vt 0.092439 0.711264
vt 0.092439 0.275260
vt 0.237774 0.275260
vt 0.237774 0.711264
vt 0.092439 0.711264
vt 0.092439 0.275260
vt 0.330464 0.324020
vt 0.330464 0.060635
vt 0.593848 0.060635
vt 0.593848 0.324019
vt 0.330464 0.324020
vt 0.330464 0.060635
vt 0.593848 0.060635
vt 0.593848 0.324019
vt 0.708785 0.261600
vt 0.708782 0.704471
vt 0.856406 0.704471
vt 0.856406 0.261600
vt 0.237774 0.275260
vt 0.092439 0.275260
vt 0.092439 0.711264
vt 0.237774 0.711264
vt 0.229677 0.695881
vt 0.038429 0.695880
vt 0.038429 0.278780
vt 0.229680 0.278780
vt 0.237774 0.275260
vt 0.237774 0.711264
vt 0.092439 0.711264
vt 0.092439 0.275260
vt 0.229677 0.695881
vt 0.038429 0.695880
vt 0.038429 0.278780
vt 0.229680 0.278780
vt 0.330464 0.324020
vt 0.330464 0.060635
vt 0.593848 0.060635
vt 0.593848 0.324019
vt 0.708785 0.261600
vt 0.708782 0.704471
vt 0.856406 0.704471
vt 0.856406 0.261600
vt 0.237774 0.275260
vt 0.092439 0.275260
vt 0.092439 0.711264
vt 0.237774 0.711264
vt 0.999321 0.692018
vt 0.002029 0.692018
vt 0.000338 0.939464
vt 0.999662 0.939464
vt 0.000000 0.000000
vt 1.000000 0.000000
vt 1.000000 1.000000
vt 0.000000 1.000000
vt 0.999321 0.692018
vt 0.999662 0.939464
vt 0.000338 0.939464
vt 0.002029 0.692018
vt 0.999321 0.692018
vt 0.999662 0.939464
vt 0.002029 0.692018
vt 0.000338 0.939464
vt 0.000679 0.939464
vt 0.997971 0.939464
vt 0.999662 0.692018
vt 0.000338 0.692018
vt 0.000000 0.000000
vt 1.000000 0.000000
vt 1.000000 1.000000
vt 0.000000 1.000000
vt 0.000679 0.939464
vt 0.000338 0.692018
vt 0.999662 0.692018
vt 0.997971 0.939464
vt 0.000679 0.939464
vt 0.000338 0.692018
vt 0.997971 0.939464
vt 0.999662 0.692018
vt 0.708785 0.261600
vt 0.708782 0.704471
vt 0.856406 0.704471
vt 0.856406 0.261600
vt 0.237774 0.275260
vt 0.092439 0.275260
vt 0.092439 0.711264
vt 0.237774 0.711264
vt 0.708785 0.261600
vt 0.856406 0.261600
vt 0.856406 0.704471
vt 0.708782 0.704471
vt 0.237774 0.275260
vt 0.237774 0.711264
vt 0.092439 0.711264
vt 0.092439 0.275260
vt 0.330464 0.324020
vt 0.330464 0.060635
vt 0.593848 0.060635
vt 0.593848 0.324019
vt 0.708785 0.261600
vt 0.708782 0.704471
vt 0.856406 0.704471
vt 0.856406 0.261600
vt 0.237774 0.275260
vt 0.092439 0.275260
vt 0.092439 0.711264
vt 0.237774 0.711264
vt 0.708785 0.261600
vt 0.856406 0.261600
vt 0.856406 0.704471
vt 0.708782 0.704471
vt 0.330468 0.324020
vt 0.593848 0.324019
vt 0.593848 0.060635
vt 0.330468 0.060635
vt 0.330468 0.324020
vt 0.593848 0.324019
vt 0.593848 0.060635
vt 0.330468 0.060635
vt 0.000000 0.000000
vt 0.000000 1.000000
vt 1.000000 1.000000
vt 1.000000 0.000000
vt 0.000000 0.000000
vt 0.000000 1.000000
vt 1.000000 1.000000
vt 1.000000 0.000000
vt 0.330468 0.324020
vt 0.593848 0.324019
vt 0.593848 0.060635
vt 0.330468 0.060635
vt 0.330468 0.324020
vt 0.593848 0.324019
vt 0.593848 0.060635
vt 0.330468 0.060635
vn 1.0000 -0.0000 0.0000
vn -0.0000 1.0000 0.0000
vn 0.0000 0.0000 -1.0000
vn -1.0000 -0.0000 -0.0000
vn -0.0000 0.0000 1.0000
vn 0.0000 -1.0000 0.0000
usemtl None
s off
f 10/1/1 9/2/1 13/3/1 28/4/1
f 5/5/1 6/6/1 3/7/1 1/8/1
f 8/9/2 12/10/2 13/11/2 9/12/2
f 7/13/2 4/14/2 3/15/2 6/16/2
f 11/17/3 8/18/3 9/19/3 10/20/3
f 11/21/4 14/22/4 12/23/4 8/24/4
f 29/25/5 15/26/5 16/27/5 17/28/5
f 19/29/1 20/30/1 16/31/1 15/32/1
f 14/33/5 28/34/5 13/35/5 12/36/5
f 21/37/2 17/38/2 16/39/2 20/40/2
f 18/41/3 21/42/3 20/43/3 19/44/3
f 18/45/4 29/46/4 17/47/4 21/48/4
f 28/49/5 29/50/5 27/51/5 26/52/5
f 22/53/6 26/54/6 27/55/6 23/56/6
f 25/57/3 22/58/3 23/59/3 24/60/3
f 24/61/4 23/62/4 27/51/4 29/50/4
f 25/57/1 28/63/1 26/64/1 22/58/1
f 17/65/5 13/66/5 34/67/5 33/68/5
f 30/69/2 33/70/2 34/71/2 31/72/2
f 7/73/3 30/74/3 31/75/3 32/76/3
f 32/77/1 31/78/1 34/67/1 13/66/1
f 7/73/4 17/79/4 33/80/4 30/74/4
f 24/81/3 7/82/3 6/83/3 5/84/3
f 24/85/4 2/86/4 4/87/4 7/88/4
f 2/89/5 1/90/5 3/91/5 4/92/5
f 25/93/1 32/94/1 38/95/1 40/96/1
f 35/97/2 37/98/2 38/99/2 32/100/2
f 36/101/3 35/102/3 32/103/3 25/104/3
f 36/105/4 39/106/4 37/107/4 35/108/4
f 39/109/5 40/110/5 38/111/5 37/112/5
usemtl None_plain.png
f 18/113/6 19/114/6 15/115/6 29/116/6
f 11/117/6 10/118/6 28/119/6 14/120/6
f 25/121/2 24/122/2 29/123/2 28/124/2
f 7/125/6 32/126/6 13/127/6 17/128/6
f 24/129/6 5/130/6 1/131/6 2/132/6
f 36/133/6 25/134/6 40/135/6 39/136/6
