# Blender v2.77 (sub 0) OBJ File: 'rfcontrol.blend'
# www.blender.org
mtllib rfcontrol.mtl
o Cube.001_Cube.000
v 1.000000 0.000000 0.000000
v 0.000000 0.000000 0.000000
v 0.000000 0.700000 0.000000
v 0.999997 0.700000 0.000000
v 1.000000 0.000000 1.000000
v 0.000000 0.000000 1.000000
v 0.999997 0.700000 1.000000
v 0.000000 0.700000 1.000000
v 0.181509 1.200000 0.500000
v 0.031509 0.700000 0.650000
v 0.331509 0.700000 0.650000
v 0.031509 0.700000 0.350000
v 0.331509 0.700000 0.350000
v 0.815587 1.200000 0.500000
v 0.665587 0.700000 0.650000
v 0.965587 0.700000 0.650000
v 0.665587 0.700000 0.350000
v 0.965587 0.700000 0.350000
vt 0.0000 0.0000
vt 1.0000 0.0001
vt 1.0000 1.0000
vt 0.0000 1.0000
vt 0.0000 0.0000
vt 1.0000 0.0001
vt 1.0000 1.0000
vt 0.0000 1.0000
vt 0.3333 0.0763
vt 0.6667 0.0000
vt 0.6667 0.5000
vt 0.6667 0.0763
vt 1.0000 0.0000
vt 1.0000 0.5000
vt 0.3333 1.0000
vt 0.0000 0.9237
vt 0.3333 0.5000
vt 0.0000 0.0763
vt 0.3333 0.0000
vt 0.6802 0.7762
vt 0.3333 0.7762
vt 0.3333 0.5000
vt 0.6802 0.5000
vt 0.3333 0.0763
vt 0.6667 0.0000
vt 0.6667 0.5000
vt 0.6667 0.0763
vt 1.0000 0.0000
vt 1.0000 0.5000
vt 0.3333 1.0000
vt 0.0000 0.9237
vt 0.3333 0.5000
vt 0.0000 0.0763
vt 0.3333 0.0000
vt 0.6802 0.7762
vt 0.3333 0.7762
vt 0.3333 0.5000
vt 0.6802 0.5000
vt 0.9310 0.9868
vt 0.0100 0.9868
vt 0.0100 0.5040
vt 0.9311 0.5040
vt 0.0231 0.9898
vt 0.0231 0.5264
vt 0.9286 0.5264
vt 0.9286 0.9898
vt 0.0197 0.9874
vt 0.0197 0.5208
vt 0.9307 0.5208
vt 0.9307 0.9874
vt 0.9300 0.9947
vt 0.0028 0.9947
vt 0.0028 0.5146
vt 0.9300 0.5148
vn 0.0000 -1.0000 0.0000
vn 0.0000 1.0000 0.0000
vn 0.9578 -0.2873 0.0000
vn 0.0000 -0.2873 -0.9578
vn 0.0000 -0.2873 0.9578
vn -0.9578 -0.2873 0.0000
vn 0.0000 0.0000 1.0000
vn -0.0000 -0.0000 -1.0000
vn -1.0000 0.0000 0.0000
vn 1.0000 0.0000 -0.0000
usemtl None
s off
f 1/1/1 5/2/1 6/3/1 2/4/1
f 4/5/2 3/6/2 8/7/2 7/8/2
usemtl None_plain.png
f 10/9/3 12/10/3 9/11/3
f 11/12/4 10/13/4 9/14/4
f 12/15/5 13/16/5 9/17/5
f 13/18/6 11/19/6 9/17/6
f 13/20/2 12/21/2 10/22/2 11/23/2
f 15/24/3 17/25/3 14/26/3
f 16/27/4 15/28/4 14/29/4
f 17/30/5 18/31/5 14/32/5
f 18/33/6 16/34/6 14/32/6
f 18/35/2 17/36/2 15/37/2 16/38/2
usemtl None_graterf.png
f 7/39/7 8/40/7 6/41/7 5/42/7
f 4/43/8 1/44/8 2/45/8 3/46/8
f 3/47/9 2/48/9 6/49/9 8/50/9
f 4/51/10 7/52/10 5/53/10 1/54/10
