# Blender v2.76 (sub 0) OBJ File: 'tanktop.blend'
# www.blender.org
mtllib tanktop.mtl
o Cube.000_Cube.001
v 0.695145 -0.000000 0.030761
v 0.306186 -0.000000 0.030209
v 0.030761 -0.000000 0.304854
v 0.030209 -0.000000 0.693814
v 0.304855 -0.000000 0.969239
v 0.693814 -0.000000 0.969791
v 0.969239 -0.000000 0.695145
v 0.969791 -0.000000 0.306186
v 0.695145 0.800000 0.030761
v 0.306186 0.800000 0.030209
v 0.030761 0.800000 0.304854
v 0.030209 0.800000 0.693814
v 0.304855 0.800000 0.969239
v 0.693814 0.800000 0.969791
v 0.969239 0.800000 0.695145
v 0.969791 0.800000 0.306186
v -0.000001 1.000000 0.000000
v 0.999999 1.000000 0.000000
v 0.999999 0.800000 0.000000
v 0.000001 0.800000 0.000000
v -0.000001 1.000000 1.000000
v 0.999999 1.000000 1.000000
v 0.000001 0.800000 1.000000
v 0.999999 0.800000 1.000000
vt 0.000679 0.939464
vt 0.997971 0.939464
vt 0.999662 0.692018
vt 0.000338 0.692018
vt 0.000000 0.000000
vt 1.000000 0.000000
vt 1.000000 1.000000
vt 0.000000 1.000000
vt 0.816951 0.018980
vt 0.816951 0.981912
vt 0.517357 0.981912
vt 0.517357 0.018980
vt 0.851252 0.017074
vt 0.851252 0.983818
vt 0.550471 0.983818
vt 0.550471 0.017074
vt 0.217762 0.018980
vt 0.217762 0.981912
vt 0.249691 0.017074
vt 0.249691 0.983818
vt 0.833993 0.844330
vt 0.494974 0.984756
vt 0.155956 0.844330
vt 0.974419 0.505312
vt 0.015530 0.505312
vt 0.494974 0.025867
vt 0.155956 0.166293
vt 0.833993 0.166293
vt 0.820102 0.179229
vt 0.190314 0.179229
vt 0.505208 0.048795
vt 0.950535 0.494123
vt 0.059880 0.494123
vt 0.820102 0.809016
vt 0.190314 0.809016
vt 0.505208 0.939450
vn 0.000000 0.000000 1.000000
vn -0.000000 1.000000 0.000000
vn 0.000000 0.000000 -1.000000
vn 1.000000 0.000000 0.000000
vn -1.000000 -0.000000 -0.000000
vn 1.000000 0.000000 0.001400
vn -0.001400 0.000000 1.000000
vn -1.000000 0.000000 -0.001400
vn 0.001400 0.000000 -1.000000
vn 0.708100 0.000000 -0.706100
vn 0.706100 0.000000 0.708100
vn -0.708100 0.000000 0.706100
vn -0.706100 0.000000 -0.708100
vn 0.000000 -1.000000 0.000000
usemtl None
s off
f 23/1/1 24/2/1 22/3/1 21/4/1
f 17/5/2 21/6/2 22/7/2 18/8/2
f 20/1/3 17/4/3 18/3/3 19/2/3
f 19/1/4 18/4/4 22/3/4 24/2/4
f 20/1/5 23/2/5 21/3/5 17/4/5
usemtl None_plain.png
f 8/9/6 16/10/6 15/11/6 7/12/6
f 6/13/7 14/14/7 13/15/7 5/16/7
f 4/17/8 12/18/8 11/11/8 3/12/8
f 2/19/9 10/20/9 9/15/9 1/16/9
f 1/16/10 9/15/10 16/14/10 8/13/10
f 7/12/11 15/11/11 14/18/11 6/17/11
f 5/16/12 13/15/12 12/20/12 4/19/12
f 3/12/13 11/11/13 10/10/13 2/9/13
f 16/21/2 9/22/2 10/23/2
f 15/24/2 16/21/2 10/23/2
f 15/24/2 10/23/2 11/25/2
f 11/25/2 13/26/2 15/24/2
f 12/27/2 13/26/2 11/25/2
f 13/26/2 14/28/2 15/24/2
f 8/29/14 2/30/14 1/31/14
f 7/32/14 2/30/14 8/29/14
f 7/32/14 3/33/14 2/30/14
f 6/34/14 3/33/14 7/32/14
f 6/34/14 4/35/14 3/33/14
f 5/36/14 4/35/14 6/34/14
f 20/5/14 19/8/14 24/7/14 23/6/14
