# Blender v2.77 (sub 0) OBJ File: 'tank2bottom.blend'
# www.blender.org
mtllib tank2bottom.mtl
o Cube.000_Cube.001
v 0.695145 0.200000 0.030761
v 0.306186 0.200000 0.030209
v 0.030761 0.200000 0.304854
v 0.030209 0.200000 0.693814
v 0.304855 0.200000 0.969239
v 0.693814 0.200000 0.969791
v 0.969239 0.200000 0.695145
v 0.969791 0.200000 0.306186
v 0.695145 1.000000 0.030761
v 0.306186 1.000000 0.030209
v 0.030761 1.000000 0.304854
v 0.030209 1.000000 0.693814
v 0.304855 1.000000 0.969239
v 0.693814 1.000000 0.969791
v 0.969239 1.000000 0.695145
v 0.969791 1.000000 0.306186
v 1.000000 0.000000 0.000000
v 0.000000 0.000000 0.000000
v 0.000000 0.200000 0.000000
v 0.999997 0.200000 0.000000
v 1.000000 0.000000 1.000000
v 0.000000 0.000000 1.000000
v 0.999997 0.200000 1.000000
v 0.000000 0.200000 1.000000
v 0.700000 0.300000 0.960000
v 0.300000 0.300000 0.960000
v 0.300000 0.500000 0.960000
v 0.699997 0.500000 0.960000
v 0.700000 0.300000 1.000000
v 0.300000 0.300000 1.000000
v 0.699997 0.500000 1.000000
v 0.300000 0.500000 1.000000
v 0.058579 0.200000 0.200000
v 0.058579 1.000000 0.200000
v 0.200000 0.200000 0.058579
v 0.200000 1.000000 0.058579
v 0.200000 0.200000 0.341421
v 0.200000 1.000000 0.341421
v 0.341421 0.200000 0.200000
v 0.341421 1.000000 0.200000
v 0.658579 0.200000 0.200000
v 0.658579 1.000000 0.200000
v 0.800000 0.200000 0.058579
v 0.800000 1.000000 0.058579
v 0.800000 0.200000 0.341421
v 0.800000 1.000000 0.341421
v 0.941421 0.200000 0.200000
v 0.941421 1.000000 0.200000
v 0.658579 0.200000 0.800000
v 0.658579 1.000000 0.800000
v 0.800000 0.200000 0.658579
v 0.800000 1.000000 0.658579
v 0.800000 0.200000 0.941421
v 0.800000 1.000000 0.941421
v 0.941421 0.200000 0.800000
v 0.941421 1.000000 0.800000
v 0.058579 0.200000 0.800000
v 0.058579 1.000000 0.800000
v 0.200000 0.200000 0.658579
v 0.200000 1.000000 0.658579
v 0.200000 0.200000 0.941421
v 0.200000 1.000000 0.941421
v 0.341421 0.200000 0.800000
v 0.341421 1.000000 0.800000
vt 0.9993 0.6920
vt 0.0020 0.6920
vt 0.0003 0.9395
vt 0.9997 0.9395
vt 0.0000 0.0000
vt 1.0000 0.0000
vt 1.0000 1.0000
vt 0.0000 1.0000
vt 0.9993 0.6920
vt 0.9997 0.9395
vt 0.0003 0.9395
vt 0.0020 0.6920
vt 0.9993 0.6920
vt 0.9997 0.9395
vt 0.0020 0.6920
vt 0.0003 0.9395
vt 0.0825 0.9562
vt 0.2799 0.9562
vt 0.2799 0.0475
vt 0.0825 0.0475
vt 0.0825 0.9562
vt 0.2799 0.9562
vt 0.2799 0.0475
vt 0.0825 0.0475
vt 0.2799 0.9562
vt 0.2799 0.0475
vt 0.0825 0.9562
vt 0.2799 0.9562
vt 0.2799 0.0475
vt 0.0825 0.0475
vt 0.0825 0.9562
vt 0.2799 0.9562
vt 0.2799 0.0475
vt 0.0825 0.0475
vt 0.0825 0.9562
vt 0.0825 0.0475
vt 0.0825 0.9562
vt 0.2799 0.9562
vt 0.2799 0.0475
vt 0.0825 0.0475
vt 0.0825 0.9562
vt 0.0825 0.0475
vt 0.2799 0.9562
vt 0.0825 0.9562
vt 0.0825 0.0475
vt 0.2799 0.0475
vt 0.0825 0.9562
vt 0.2799 0.9562
vt 0.2799 0.0475
vt 0.0825 0.0475
vt 0.2799 0.9562
vt 0.0825 0.9562
vt 0.0825 0.0475
vt 0.2799 0.0475
vt 0.2799 0.9562
vt 0.2799 0.0475
vt 0.0000 0.0000
vt 0.0000 1.0000
vt 1.0000 1.0000
vt 1.0000 0.0000
vt 0.7143 0.0000
vt 0.7857 0.0000
vt 0.7857 1.0000
vt 0.7143 1.0000
vt 0.7857 1.0000
vt 0.7857 0.0000
vt 0.8571 0.0000
vt 0.8571 1.0000
vt 0.0000 0.0000
vt 0.0000 1.0000
vt 1.0000 0.0000
vt 1.0000 0.6667
vt 0.9286 0.6667
vt 0.9286 0.0000
vt 0.9286 0.6667
vt 0.8571 0.6667
vt 0.8571 0.0000
vt 0.9286 0.0000
vt 0.9993 0.6920
vt 0.0020 0.6920
vt 0.0003 0.9395
vt 0.9997 0.9395
vt 0.9936 0.0813
vt 0.9936 0.9034
vt 0.7468 0.9034
vt 0.7468 0.0813
vt 0.5000 0.0813
vt 0.5000 0.9034
vt 0.2532 0.9034
vt 0.2532 0.0813
vt 0.0085 0.9085
vt 0.0085 0.0868
vt 0.2542 0.0868
vt 0.2542 0.9085
vt 0.5000 0.9085
vt 0.5000 0.0868
vt 0.7458 0.0868
vt 0.7458 0.9085
vt 0.9915 0.0868
vt 0.9915 0.9085
vt 0.0064 0.9034
vt 0.0064 0.0813
vn 0.0000 0.0000 1.0000
vn 0.0000 -1.0000 0.0000
vn -0.0000 -0.0000 -1.0000
vn -1.0000 0.0000 0.0000
vn 1.0000 0.0000 -0.0000
vn -0.7071 0.0000 -0.7071
vn 0.7071 0.0000 -0.7071
vn -0.7071 0.0000 0.7071
vn 0.7071 0.0000 0.7071
vn 0.0000 1.0000 0.0000
vn 1.0000 0.0000 0.0014
vn -0.0014 0.0000 1.0000
vn -1.0000 0.0000 -0.0014
vn 0.0014 0.0000 -1.0000
vn 0.7081 0.0000 -0.7061
vn 0.7061 0.0000 0.7081
vn -0.7081 0.0000 0.7061
vn -0.7061 0.0000 -0.7081
usemtl None
s off
f 23/1/1 24/2/1 22/3/1 21/4/1
f 17/5/2 21/6/2 22/7/2 18/8/2
f 20/9/3 17/10/3 18/11/3 19/12/3
f 19/13/4 18/14/4 22/3/4 24/2/4
f 20/9/5 23/15/5 21/16/5 17/10/5
f 34/17/6 36/18/6 35/19/6 33/20/6
f 36/21/7 40/22/7 39/23/7 35/24/7
f 38/25/8 34/17/8 33/20/8 37/26/8
f 44/27/7 48/28/7 47/29/7 43/30/7
f 42/31/6 44/32/6 43/33/6 41/34/6
f 48/28/9 46/35/9 45/36/9 47/29/9
f 52/37/7 56/38/7 55/39/7 51/40/7
f 56/38/9 54/41/9 53/42/9 55/39/9
f 54/43/8 50/44/8 49/45/8 53/46/8
f 58/47/6 60/48/6 59/49/6 57/50/6
f 64/51/9 62/52/9 61/53/9 63/54/9
f 62/55/8 58/47/8 57/50/8 61/56/8
usemtl None_plain.png
f 20/57/10 19/58/10 24/59/10 23/60/10
f 25/61/2 29/62/2 30/63/2 26/64/2
f 28/65/10 27/66/10 32/67/10 31/68/10
f 28/69/3 25/61/3 26/64/3 27/70/3
f 27/71/4 26/72/4 30/73/4 32/74/4
f 28/75/5 31/76/5 29/77/5 25/78/5
usemtl None_screen.png
f 31/79/1 32/80/1 30/81/1 29/82/1
usemtl None_tank.png
f 8/83/11 16/84/11 15/85/11 7/86/11
f 6/87/12 14/88/12 13/89/12 5/90/12
f 4/91/13 12/92/13 11/93/13 3/94/13
f 2/95/14 10/96/14 9/97/14 1/98/14
f 1/98/15 9/97/15 16/99/15 8/100/15
f 7/86/16 15/85/16 14/88/16 6/87/16
f 5/90/17 13/89/17 12/101/17 4/102/17
f 3/94/18 11/93/18 10/96/18 2/95/18
