# Blender v2.76 (sub 0) OBJ File: 'tankbottom.blend'
# www.blender.org
mtllib tankbottom.mtl
o Cube.000_Cube.001
v 0.695145 0.200000 0.030761
v 0.306186 0.200000 0.030209
v 0.030761 0.200000 0.304854
v 0.030209 0.200000 0.693814
v 0.304855 0.200000 0.969239
v 0.693814 0.200000 0.969791
v 0.969239 0.200000 0.695145
v 0.969791 0.200000 0.306186
v 0.695145 1.000000 0.030761
v 0.306186 1.000000 0.030209
v 0.030761 1.000000 0.304854
v 0.030209 1.000000 0.693814
v 0.304855 1.000000 0.969239
v 0.693814 1.000000 0.969791
v 0.969239 1.000000 0.695145
v 0.969791 1.000000 0.306186
v 1.000000 0.000000 0.000000
v 0.000000 0.000000 0.000000
v 0.000000 0.200000 0.000000
v 0.999997 0.200000 0.000000
v 1.000000 0.000000 1.000000
v 0.000000 0.000000 1.000000
v 0.999997 0.200000 1.000000
v 0.000000 0.200000 1.000000
v 0.700000 0.300000 0.960000
v 0.300000 0.300000 0.960000
v 0.300000 0.500000 0.960000
v 0.699997 0.500000 0.960000
v 0.700000 0.300000 1.000000
v 0.300000 0.300000 1.000000
v 0.699997 0.500000 1.000000
v 0.300000 0.500000 1.000000
vt 0.999321 0.692018
vt 0.002029 0.692018
vt 0.000338 0.939464
vt 0.999662 0.939464
vt 0.993552 0.081312
vt 0.993552 0.903380
vt 0.746776 0.903380
vt 0.746776 0.081312
vt 0.500000 0.081312
vt 0.500000 0.903380
vt 0.253224 0.903380
vt 0.253224 0.081312
vt 0.008480 0.908507
vt 0.008480 0.086791
vt 0.254240 0.086791
vt 0.254240 0.908507
vt 0.500000 0.908507
vt 0.500000 0.086791
vt 0.745760 0.086791
vt 0.745760 0.908507
vt 0.991520 0.086791
vt 0.991520 0.908507
vt 0.006448 0.903380
vt 0.006448 0.081312
vt 0.000000 0.000000
vt 1.000000 0.000000
vt 1.000000 1.000000
vt 0.000000 1.000000
vt 0.714285 0.000000
vt 0.785714 0.000000
vt 0.785714 1.000000
vt 0.714286 1.000000
vt 0.857143 0.000000
vt 0.857143 0.999995
vt 1.000000 0.666667
vt 0.928572 0.666667
vt 0.928571 0.000000
vt 0.857143 0.666667
vn 0.000000 0.000000 1.000000
vn 1.000000 0.000000 0.001400
vn -0.001400 0.000000 1.000000
vn -1.000000 0.000000 -0.001400
vn 0.001400 0.000000 -1.000000
vn 0.708100 0.000000 -0.706100
vn 0.706100 0.000000 0.708100
vn -0.708100 0.000000 0.706100
vn -0.706100 0.000000 -0.708100
vn 0.000000 -1.000000 0.000000
vn -0.000000 -0.000000 -1.000000
vn -1.000000 0.000000 0.000000
vn 1.000000 0.000000 -0.000000
vn 0.000000 1.000000 0.000000
usemtl None
s off
f 31/1/1 32/2/1 30/3/1 29/4/1
usemtl None_tank.png
f 8/5/2 16/6/2 15/7/2 7/8/2
f 6/9/3 14/10/3 13/11/3 5/12/3
f 4/13/4 12/14/4 11/15/4 3/16/4
f 2/17/5 10/18/5 9/19/5 1/20/5
f 1/20/6 9/19/6 16/21/6 8/22/6
f 7/8/7 15/7/7 14/10/7 6/9/7
f 5/12/8 13/11/8 12/23/8 4/24/8
f 3/16/9 11/15/9 10/18/9 2/17/9
usemtl None_base.png
f 23/1/1 24/2/1 22/3/1 21/4/1
f 17/25/10 21/26/10 22/27/10 18/28/10
f 20/1/11 17/4/11 18/3/11 19/2/11
f 19/1/12 18/4/12 22/3/12 24/2/12
f 20/1/13 23/2/13 21/3/13 17/4/13
usemtl None_plain.png
f 20/25/14 19/28/14 24/27/14 23/26/14
f 25/29/10 29/30/10 30/31/10 26/32/10
f 28/31/14 27/30/14 32/33/14 31/34/14
f 28/25/11 25/29/11 26/32/11 27/28/11
f 27/26/12 26/35/12 30/36/12 32/37/12
f 28/36/13 31/38/13 29/33/13 25/37/13
