# Blender v2.76 (sub 0) OBJ File: 'tankmiddle.blend'
# www.blender.org
mtllib tankmiddle.mtl
o Cube.000_Cube.001
v 0.695145 -0.000000 0.030761
v 0.306186 -0.000000 0.030209
v 0.030761 -0.000000 0.304854
v 0.030209 -0.000000 0.693814
v 0.304855 -0.000000 0.969239
v 0.693814 -0.000000 0.969791
v 0.969239 -0.000000 0.695145
v 0.969791 -0.000000 0.306186
v 0.695145 1.000000 0.030761
v 0.306186 1.000000 0.030209
v 0.030761 1.000000 0.304854
v 0.030209 1.000000 0.693814
v 0.304855 1.000000 0.969239
v 0.693814 1.000000 0.969791
v 0.969239 1.000000 0.695145
v 0.969791 1.000000 0.306186
vt 0.500000 0.006691
vt 0.500000 0.988294
vt 0.253431 0.988294
vt 0.253431 0.006691
vt 0.992262 0.022140
vt 0.992262 0.971641
vt 0.746131 0.971641
vt 0.746131 0.022140
vt 0.500000 0.022140
vt 0.500000 0.971641
vt 0.253869 0.971641
vt 0.253869 0.022140
vt 0.993138 0.006691
vt 0.993138 0.988294
vt 0.746569 0.988294
vt 0.746569 0.006691
vt 0.006862 0.988294
vt 0.006862 0.006691
vt 0.007738 0.971641
vt 0.007738 0.022141
vn 1.000000 0.000000 0.001400
vn -0.001400 0.000000 1.000000
vn -1.000000 0.000000 -0.001400
vn 0.001400 0.000000 -1.000000
vn 0.708100 0.000000 -0.706100
vn 0.706100 0.000000 0.708100
vn -0.708100 0.000000 0.706100
vn -0.706100 0.000000 -0.708100
usemtl None
s off
f 8/1/1 16/2/1 15/3/1 7/4/1
f 6/5/2 14/6/2 13/7/2 5/8/2
f 4/9/3 12/10/3 11/11/3 3/12/3
f 2/13/4 10/14/4 9/15/4 1/16/4
f 1/16/5 9/15/5 16/2/5 8/1/5
f 7/4/6 15/3/6 14/17/6 6/18/6
f 5/8/7 13/7/7 12/10/7 4/9/7
f 3/12/8 11/11/8 10/19/8 2/20/8
