# Blender v2.77 (sub 0) OBJ File: 'tank2full.blend'
# www.blender.org
mtllib tank2full.mtl
o Cube.002
v 0.700000 0.300000 0.960000
v 0.300000 0.300000 0.960000
v 0.300000 0.500000 0.960000
v 0.699997 0.500000 0.960000
v 0.700000 0.300000 1.000000
v 0.300000 0.300000 1.000000
v 0.699997 0.500000 1.000000
v 0.300000 0.500000 1.000000
v 0.695145 0.200000 0.030761
v 0.306186 0.200000 0.030209
v 0.030761 0.200000 0.304854
v 0.030209 0.200000 0.693814
v 0.304855 0.200000 0.969239
v 0.693814 0.200000 0.969791
v 0.969239 0.200000 0.695145
v 0.969791 0.200000 0.306186
v 0.695145 0.800000 0.030761
v 0.306186 0.800000 0.030209
v 0.030761 0.800000 0.304854
v 0.030209 0.800000 0.693814
v 0.304855 0.800000 0.969239
v 0.693814 0.800000 0.969791
v 0.969239 0.800000 0.695145
v 0.969791 0.800000 0.306186
v 1.000000 0.000000 0.000000
v 0.000000 0.000000 0.000000
v 0.000000 0.200000 0.000000
v 0.999997 0.200000 0.000000
v 1.000000 0.000000 1.000000
v 0.000000 0.000000 1.000000
v 0.999997 0.200000 1.000000
v 0.000000 0.200000 1.000000
v -0.000001 1.000000 0.000000
v 0.999999 1.000000 0.000000
v 0.999999 0.800000 0.000000
v 0.000001 0.800000 0.000000
v -0.000001 1.000000 1.000000
v 0.999999 1.000000 1.000000
v 0.000001 0.800000 1.000000
v 0.999999 0.800000 1.000000
v 0.058579 0.200000 0.200000
v 0.058579 0.800000 0.200000
v 0.200000 0.200000 0.058579
v 0.200000 0.800000 0.058579
v 0.200000 0.200000 0.341421
v 0.200000 0.800000 0.341421
v 0.341421 0.200000 0.200000
v 0.341421 0.800000 0.200000
v 0.658579 0.200000 0.200000
v 0.658579 0.800000 0.200000
v 0.800000 0.200000 0.058579
v 0.800000 0.800000 0.058579
v 0.800000 0.200000 0.341421
v 0.800000 0.800000 0.341421
v 0.941421 0.200000 0.200000
v 0.941421 0.800000 0.200000
v 0.658579 0.200000 0.800000
v 0.658579 0.800000 0.800000
v 0.800000 0.200000 0.658579
v 0.800000 0.800000 0.658579
v 0.800000 0.200000 0.941421
v 0.800000 0.800000 0.941421
v 0.941421 0.200000 0.800000
v 0.941421 0.800000 0.800000
v 0.058579 0.200000 0.800000
v 0.058579 0.800000 0.800000
v 0.200000 0.200000 0.658579
v 0.200000 0.800000 0.658579
v 0.200000 0.200000 0.941421
v 0.200000 0.800000 0.941421
v 0.341421 0.200000 0.800000
v 0.341421 0.800000 0.800000
vt 0.9993 0.6920
vt 0.0020 0.6920
vt 0.0003 0.9395
vt 0.9997 0.9395
vt 0.0000 0.0000
vt 1.0000 0.0000
vt 1.0000 1.0000
vt 0.0000 1.0000
vt 0.9993 0.6920
vt 0.9997 0.9395
vt 0.0003 0.9395
vt 0.0020 0.6920
vt 0.9993 0.6920
vt 0.9997 0.9395
vt 0.0020 0.6920
vt 0.0003 0.9395
vt 0.0007 0.9395
vt 0.9980 0.9395
vt 0.9997 0.6920
vt 0.0003 0.6920
vt 0.0000 0.0000
vt 1.0000 0.0000
vt 1.0000 1.0000
vt 0.0000 1.0000
vt 0.0007 0.9395
vt 0.0003 0.6920
vt 0.9997 0.6920
vt 0.9980 0.9395
vt 0.0007 0.9395
vt 0.0003 0.6920
vt 0.9980 0.9395
vt 0.9997 0.6920
vt 0.0589 0.0000
vt 0.3272 0.0000
vt 0.3272 1.0000
vt 0.0589 1.0000
vt 0.0589 0.0000
vt 0.3272 0.0000
vt 0.3272 1.0000
vt 0.0589 1.0000
vt 0.0589 0.0000
vt 0.3272 0.0000
vt 0.3272 1.0000
vt 0.0589 1.0000
vt 0.0589 0.0000
vt 0.3272 0.0000
vt 0.3272 1.0000
vt 0.0589 1.0000
vt 0.0589 0.0000
vt 0.3272 0.0000
vt 0.3272 1.0000
vt 0.0589 1.0000
vt 0.0589 0.0000
vt 0.3272 0.0000
vt 0.3272 1.0000
vt 0.0589 1.0000
vt 0.0589 0.0000
vt 0.3272 0.0000
vt 0.3272 1.0000
vt 0.0589 1.0000
vt 0.0589 0.0000
vt 0.3272 0.0000
vt 0.3272 1.0000
vt 0.0589 1.0000
vt 0.0589 0.0000
vt 0.3272 0.0000
vt 0.3272 1.0000
vt 0.0589 1.0000
vt 0.0589 0.0000
vt 0.3272 0.0000
vt 0.3272 1.0000
vt 0.0589 1.0000
vt 0.0589 0.0000
vt 0.3272 0.0000
vt 0.3272 1.0000
vt 0.0589 1.0000
vt 0.0589 0.0000
vt 0.3272 0.0000
vt 0.3272 1.0000
vt 0.0589 1.0000
vt 0.0000 0.0000
vt 0.0000 1.0000
vt 1.0000 1.0000
vt 1.0000 0.0000
vt 0.0000 0.0000
vt 0.0000 1.0000
vt 1.0000 1.0000
vt 1.0000 0.0000
vt 0.7143 0.0000
vt 0.7857 0.0000
vt 0.7857 1.0000
vt 0.7143 1.0000
vt 0.7857 1.0000
vt 0.7857 0.0000
vt 0.8571 0.0000
vt 0.8571 1.0000
vt 0.0000 0.0000
vt 0.0000 1.0000
vt 1.0000 0.0000
vt 1.0000 0.6667
vt 0.9286 0.6667
vt 0.9286 0.0000
vt 0.9286 0.6667
vt 0.8571 0.6667
vt 0.8571 0.0000
vt 0.9286 0.0000
vt 0.9993 0.6920
vt 0.0020 0.6920
vt 0.0003 0.9395
vt 0.9997 0.9395
vt 0.9967 0.1399
vt 0.9967 0.8663
vt 0.7483 0.8663
vt 0.7483 0.1399
vt 0.5000 0.1399
vt 0.5000 0.8663
vt 0.2517 0.8663
vt 0.2517 0.1399
vt 0.0116 0.8627
vt 0.0116 0.1367
vt 0.2558 0.1367
vt 0.2558 0.8627
vt 0.5000 0.8627
vt 0.5000 0.1367
vt 0.7442 0.1367
vt 0.7442 0.8627
vt 0.9884 0.1367
vt 0.9884 0.8627
vt 0.0033 0.8663
vt 0.0033 0.1399
vn 0.0000 0.0000 1.0000
vn 0.0000 -1.0000 0.0000
vn -0.0000 -0.0000 -1.0000
vn -1.0000 0.0000 0.0000
vn 1.0000 0.0000 -0.0000
vn -0.0000 1.0000 0.0000
vn -0.7071 0.0000 -0.7071
vn 0.7071 0.0000 -0.7071
vn -0.7071 0.0000 0.7071
vn 0.7071 0.0000 0.7071
vn 1.0000 0.0000 0.0014
vn -0.0014 0.0000 1.0000
vn -1.0000 0.0000 -0.0014
vn 0.0014 0.0000 -1.0000
vn 0.7081 0.0000 -0.7061
vn 0.7061 0.0000 0.7081
vn -0.7081 0.0000 0.7061
vn -0.7061 0.0000 -0.7081
usemtl None
s off
f 31/1/1 32/2/1 30/3/1 29/4/1
f 25/5/2 29/6/2 30/7/2 26/8/2
f 28/9/3 25/10/3 26/11/3 27/12/3
f 27/13/4 26/14/4 30/3/4 32/2/4
f 28/9/5 31/15/5 29/16/5 25/10/5
f 39/17/1 40/18/1 38/19/1 37/20/1
f 33/21/6 37/22/6 38/23/6 34/24/6
f 36/25/3 33/26/3 34/27/3 35/28/3
f 35/29/5 34/30/5 38/19/5 40/18/5
f 36/25/4 39/31/4 37/32/4 33/26/4
f 42/33/7 44/34/7 43/35/7 41/36/7
f 44/37/8 48/38/8 47/39/8 43/40/8
f 46/41/9 42/42/9 41/43/9 45/44/9
f 50/45/7 52/46/7 51/47/7 49/48/7
f 52/49/8 56/50/8 55/51/8 51/52/8
f 56/53/10 54/54/10 53/55/10 55/56/10
f 60/57/8 64/58/8 63/59/8 59/60/8
f 64/61/10 62/62/10 61/63/10 63/64/10
f 62/65/9 58/66/9 57/67/9 61/68/9
f 66/69/7 68/70/7 67/71/7 65/72/7
f 72/73/10 70/74/10 69/75/10 71/76/10
f 70/77/9 66/78/9 65/79/9 69/80/9
usemtl None_plain.png
f 28/81/6 27/82/6 32/83/6 31/84/6
f 36/85/2 35/86/2 40/87/2 39/88/2
usemtl None_plain.png.001
f 1/89/2 5/90/2 6/91/2 2/92/2
f 4/93/6 3/94/6 8/95/6 7/96/6
f 4/97/3 1/89/3 2/92/3 3/98/3
f 3/99/4 2/100/4 6/101/4 8/102/4
f 4/103/5 7/104/5 5/105/5 1/106/5
usemtl None_screen.png
f 7/107/1 8/108/1 6/109/1 5/110/1
usemtl None_tank.png
f 16/111/11 24/112/11 23/113/11 15/114/11
f 14/115/12 22/116/12 21/117/12 13/118/12
f 12/119/13 20/120/13 19/121/13 11/122/13
f 10/123/14 18/124/14 17/125/14 9/126/14
f 9/126/15 17/125/15 24/127/15 16/128/15
f 15/114/16 23/113/16 22/116/16 14/115/16
f 13/118/17 21/117/17 20/129/17 12/130/17
f 11/122/18 19/121/18 18/124/18 10/123/18
