# Blender v2.76 (sub 0) OBJ File: 'tankfull.blend'
# www.blender.org
mtllib tankfull.mtl
o Cube.002
v 0.700000 0.300000 0.960000
v 0.300000 0.300000 0.960000
v 0.300000 0.500000 0.960000
v 0.699997 0.500000 0.960000
v 0.700000 0.300000 1.000000
v 0.300000 0.300000 1.000000
v 0.699997 0.500000 1.000000
v 0.300000 0.500000 1.000000
v 0.695145 0.200000 0.030761
v 0.306186 0.200000 0.030209
v 0.030761 0.200000 0.304854
v 0.030209 0.200000 0.693814
v 0.304855 0.200000 0.969239
v 0.693814 0.200000 0.969791
v 0.969239 0.200000 0.695145
v 0.969791 0.200000 0.306186
v 0.695145 0.800000 0.030761
v 0.306186 0.800000 0.030209
v 0.030761 0.800000 0.304854
v 0.030209 0.800000 0.693814
v 0.304855 0.800000 0.969239
v 0.693814 0.800000 0.969791
v 0.969239 0.800000 0.695145
v 0.969791 0.800000 0.306186
v 1.000000 0.000000 0.000000
v 0.000000 0.000000 0.000000
v 0.000000 0.200000 0.000000
v 0.999997 0.200000 0.000000
v 1.000000 0.000000 1.000000
v 0.000000 0.000000 1.000000
v 0.999997 0.200000 1.000000
v 0.000000 0.200000 1.000000
v -0.000001 1.000000 0.000000
v 0.999999 1.000000 0.000000
v 0.999999 0.800000 0.000000
v 0.000001 0.800000 0.000000
v -0.000001 1.000000 1.000000
v 0.999999 1.000000 1.000000
v 0.000001 0.800000 1.000000
v 0.999999 0.800000 1.000000
vt 0.999321 0.692018
vt 0.002029 0.692018
vt 0.000338 0.939464
vt 0.999662 0.939464
vt 0.000000 0.000000
vt 1.000000 0.000000
vt 1.000000 1.000000
vt 0.000000 1.000000
vt 0.000679 0.939464
vt 0.997971 0.939464
vt 0.999662 0.692018
vt 0.000338 0.692018
vt 0.714285 0.000000
vt 0.785714 0.000000
vt 0.785714 1.000000
vt 0.714286 1.000000
vt 0.857143 0.000000
vt 0.857143 0.999995
vt 1.000000 0.666667
vt 0.928572 0.666667
vt 0.928571 0.000000
vt 0.857143 0.666667
vt 0.996669 0.139878
vt 0.996669 0.866265
vt 0.748334 0.866265
vt 0.748334 0.139878
vt 0.500000 0.139878
vt 0.500000 0.866265
vt 0.251666 0.866265
vt 0.251666 0.139878
vt 0.011577 0.862655
vt 0.011577 0.136670
vt 0.255789 0.136670
vt 0.255789 0.862655
vt 0.500000 0.862655
vt 0.500000 0.136670
vt 0.744211 0.136670
vt 0.744211 0.862655
vt 0.988423 0.136670
vt 0.988423 0.862655
vt 0.003331 0.866265
vt 0.003331 0.139878
vn 0.000000 0.000000 1.000000
vn 0.000000 -1.000000 0.000000
vn -0.000000 -0.000000 -1.000000
vn -1.000000 0.000000 0.000000
vn 1.000000 0.000000 -0.000000
vn -0.000000 1.000000 0.000000
vn 1.000000 0.000000 0.001400
vn -0.001400 0.000000 1.000000
vn -1.000000 0.000000 -0.001400
vn 0.001400 0.000000 -1.000000
vn 0.708100 0.000000 -0.706100
vn 0.706100 0.000000 0.708100
vn -0.708100 0.000000 0.706100
vn -0.706100 0.000000 -0.708100
usemtl None
s off
f 31/1/1 32/2/1 30/3/1 29/4/1
f 25/5/2 29/6/2 30/7/2 26/8/2
f 28/1/3 25/4/3 26/3/3 27/2/3
f 27/1/4 26/4/4 30/3/4 32/2/4
f 28/1/5 31/2/5 29/3/5 25/4/5
f 39/9/1 40/10/1 38/11/1 37/12/1
f 33/5/6 37/6/6 38/7/6 34/8/6
f 36/9/3 33/12/3 34/11/3 35/10/3
f 35/9/5 34/12/5 38/11/5 40/10/5
f 36/9/4 39/10/4 37/11/4 33/12/4
usemtl None_plain.png
f 28/5/6 27/8/6 32/7/6 31/6/6
f 36/5/2 35/8/2 40/7/2 39/6/2
usemtl None_plain.png.001
f 1/13/2 5/14/2 6/15/2 2/16/2
f 4/15/6 3/14/6 8/17/6 7/18/6
f 4/5/3 1/13/3 2/16/3 3/8/3
f 3/6/4 2/19/4 6/20/4 8/21/4
f 4/20/5 7/22/5 5/17/5 1/21/5
usemtl None_screen.png
f 7/1/1 8/2/1 6/3/1 5/4/1
usemtl None_tank.png
f 16/23/7 24/24/7 23/25/7 15/26/7
f 14/27/8 22/28/8 21/29/8 13/30/8
f 12/31/9 20/32/9 19/33/9 11/34/9
f 10/35/10 18/36/10 17/37/10 9/38/10
f 9/38/11 17/37/11 24/39/11 16/40/11
f 15/26/12 23/25/12 22/28/12 14/27/12
f 13/30/13 21/29/13 20/41/13 12/42/13
f 11/34/14 19/33/14 18/36/14 10/35/14
